<svg width="16" height="17" viewBox="0 0 16 17" fill="none" xmlns="http://www.w3.org/2000/svg">
<g id="Graphics-symbol">
<path id="Vector" d="M14.8418 13.2322L11.7918 8.53225C12.5418 7.68225 12.9918 6.53224 12.9918 5.28224C12.9918 2.53224 10.7418 0.282242 7.99178 0.282242C5.24178 0.332242 2.99178 2.58224 2.99178 5.33224C2.99178 6.58224 3.44178 7.68224 4.19178 8.58224L1.14178 13.2822C0.741781 13.8822 0.691781 14.6822 1.04178 15.3322C1.39178 15.9822 2.04178 16.3822 2.79178 16.3822H13.1918C13.9418 16.3822 14.5918 15.9822 14.9418 15.3322C15.2918 14.6322 15.2918 13.8822 14.8418 13.2322ZM3.99178 5.33224C3.99178 3.13224 5.79178 1.33224 7.99178 1.33224C10.1918 1.33224 11.9918 3.13224 11.9918 5.33224C11.9918 6.23224 11.6918 7.03224 11.2418 7.68224L9.69178 5.28224C9.34178 4.73224 8.69178 4.38224 8.04178 4.38224C7.34178 4.38224 6.74178 4.73224 6.39178 5.28224L4.84178 7.68224C4.29178 7.03224 3.99178 6.23224 3.99178 5.33224ZM10.5418 8.43225C9.84178 8.98225 8.94178 9.33224 7.99178 9.33224C7.04178 9.33224 6.14178 8.98225 5.44178 8.43225L7.14178 5.83224C7.34178 5.53224 7.64178 5.38224 7.99178 5.38224C8.34178 5.38224 8.64178 5.53224 8.84178 5.83224L10.5418 8.43225ZM14.0918 14.8322C13.8918 15.1822 13.5918 15.3322 13.1918 15.3322H2.79178C2.44178 15.3322 2.09178 15.1322 1.89178 14.8322C1.69178 14.4822 1.74178 14.1322 1.94178 13.8322L4.89178 9.33224C5.74178 9.98224 6.79178 10.3822 7.99178 10.3822C9.14178 10.3822 10.2418 9.98224 11.0918 9.33224L14.0418 13.8322C14.2418 14.0822 14.2418 14.4822 14.0918 14.8322Z" fill="#6687FF"/>
</g>
</svg>
