<svg width="14" height="14" viewBox="0 0 14 14" fill="none" xmlns="http://www.w3.org/2000/svg">
<g id="Graphics-symbol">
<path id="Vector" fill-rule="evenodd" clip-rule="evenodd" d="M12.6875 3.5C13.4312 3.5 14 4.06875 14 4.8125V10.9375C14 12.1625 13.0375 13.125 11.8125 13.125H2.1875C0.9625 13.125 0 12.1625 0 10.9375V2.1875C0 1.44375 0.56875 0.875 1.3125 0.875H5.3375C5.5125 0.875 5.64375 0.9625 5.73125 1.09375L6.65 2.8C6.86875 3.2375 7.30625 3.5 7.7875 3.5H12.6875ZM13.125 4.8125V10.9375C13.125 11.6812 12.5562 12.25 11.8125 12.25H2.1875C1.44375 12.25 0.875 11.6812 0.875 10.9375V4.375H12.6875C12.95 4.375 13.125 4.55 13.125 4.8125ZM6.0375 3.5C5.95 3.4125 5.90625 3.325 5.8625 3.2375L5.075 1.75H1.3125C1.05 1.75 0.875 1.925 0.875 2.1875V3.5H6.0375Z" fill="#3F3F46"/>
</g>
</svg>
