<svg xmlns="http://www.w3.org/2000/svg" width="30" height="30" fill="none"><path d="M28.8 25 23 16.2A9.4 9.4 0 0 0 16 .7a9.5 9.5 0 0 0-9.4 9.5c0 2.3.8 4.4 2.2 6l-5.7 8.9a3.8 3.8 0 0 0-.2 3.8c.7 1.3 1.9 2 3.3 2h19.5c1.4 0 2.6-.7 3.3-2 .6-1.3.6-2.7-.2-3.9ZM8.4 10.2c0-4.1 3.4-7.5 7.5-7.5A7.5 7.5 0 0 1 22 14.6L19.1 10c-.6-1-1.8-1.7-3-1.7-1.4 0-2.5.7-3.2 1.7L10 14.6a6.7 6.7 0 0 1-1.6-4.4ZM20.7 16c-1.3 1-3 1.7-4.8 1.7-1.7 0-3.4-.7-4.7-1.7l3.2-4.9c.3-.5.9-.8 1.5-.8.7 0 1.3.3 1.6.8l3.2 4.9Zm6.7 12c-.4.7-1 1-1.7 1H6.2a2 2 0 0 1-1.7-1c-.4-.7-.3-1.3.1-1.9l5.5-8.4c1.6 1.2 3.6 2 5.8 2 2.2 0 4.3-.8 5.9-2l5.5 8.4c.4.5.4 1.2 0 1.9Z" fill="#fff"/></svg>